<svg width="33" height="32" viewBox="0 0 33 32" fill="none" xmlns="http://www.w3.org/2000/svg">
<path fill-rule="evenodd" clip-rule="evenodd" d="M4.77344 16C4.77344 21.9333 9.10677 26.8667 14.7734 27.8667L14.8404 27.8131C14.818 27.8088 14.7957 27.8044 14.7734 27.8V19.3333H11.7734V16H14.7734V13.3333C14.7734 10.3333 16.7067 8.66663 19.4401 8.66663C20.3067 8.66663 21.24 8.79996 22.1067 8.93329V12H20.5734C19.1067 12 18.7734 12.7333 18.7734 13.6666V16H21.9734L21.4401 19.3333H18.7734V27.8C18.7511 27.8044 18.7288 27.8088 18.7065 27.8131L18.7734 27.8667C24.4401 26.8667 28.7734 21.9333 28.7734 16C28.7734 9.4 23.3734 4 16.7734 4C10.1734 4 4.77344 9.4 4.77344 16Z" fill="white"/>
</svg>