


<svg width="32" height="32" viewBox="0 0 32 32" fill="none" xmlns="http://www.w3.org/2000/svg">
<path fill-rule="evenodd" clip-rule="evenodd" d="M17.0956 3.94445C20.0674 4.09051 22.8365 5.31597 24.9515 7.43239C27.2075 9.6898 28.4493 12.6905 28.448 15.8816C28.4453 22.4668 23.0845 27.8248 16.4989 27.8248C14.0224 27.8248 12.0544 27.0639 10.7837 26.3711L4.44922 28.0319L6.14447 21.843C5.09878 20.0317 4.54855 17.9772 4.54941 15.8722C4.55206 9.28716 9.91247 3.92969 16.4987 3.92969L17.0956 3.94445ZM11.0772 24.209L11.4399 24.4241C12.9647 25.3285 14.7127 25.8071 16.4948 25.8078H16.4988C21.973 25.8078 26.4283 21.3545 26.4305 15.8809C26.4315 13.2285 25.3995 10.7345 23.5243 8.85814C21.6492 6.98171 19.1556 5.94775 16.5028 5.94688C11.0245 5.94688 6.5691 10.3997 6.56692 15.8728C6.56617 17.7486 7.09123 19.5753 8.08541 21.1557L8.32155 21.5314L7.31823 25.1945L11.0772 24.209ZM22.5188 18.7217C22.4442 18.5971 22.2451 18.5225 21.9466 18.3731C21.648 18.2237 20.1801 17.5018 19.9064 17.4021C19.6327 17.3027 19.4337 17.2529 19.2347 17.5516C19.0357 17.8503 18.4635 18.5225 18.2892 18.7217C18.1151 18.9208 17.9409 18.9458 17.6424 18.7964C17.3439 18.6471 16.3818 18.3319 15.2414 17.3152C14.3538 16.5239 13.7546 15.5467 13.5804 15.2479C13.4063 14.9492 13.5618 14.7876 13.7113 14.6389C13.8456 14.5051 14.0099 14.2903 14.1592 14.116C14.3085 13.9418 14.3582 13.8173 14.4578 13.6182C14.5573 13.419 14.5075 13.2448 14.4329 13.0954C14.3582 12.946 13.7611 11.4771 13.5123 10.8795C13.2699 10.2977 13.0238 10.3765 12.8405 10.3673C12.6666 10.3586 12.4673 10.3567 12.2683 10.3567C12.0693 10.3567 11.7458 10.4314 11.4721 10.7302C11.1984 11.0289 10.4271 11.751 10.4271 13.2197C10.4271 14.6887 11.497 16.1076 11.6463 16.3068C11.7956 16.5061 13.7516 19.5202 16.7467 20.8129C17.4591 21.1204 18.0152 21.304 18.4488 21.4415C19.1641 21.6686 19.8149 21.6366 20.3294 21.5598C20.903 21.4741 22.0959 20.8378 22.3447 20.1409C22.5934 19.4436 22.5934 18.8462 22.5188 18.7217Z" fill="white"/>
</svg>
